<?xml version="1.0" encoding="UTF-8"?> <svg xmlns="http://www.w3.org/2000/svg" xmlns:xlink="http://www.w3.org/1999/xlink" version="1.1" id="Calque_1" x="0px" y="0px" viewBox="0 0 1080 238.7" style="enable-background:new 0 0 1080 238.7;" xml:space="preserve"> <style type="text/css"> .st0{fill:#3CAA64;} .st1{fill:#C3DDCE;} .st2{fill:#E30613;} .st3{fill:#FA460A;} .st4{fill:none;stroke:#1D1D1B;stroke-width:5.800000e-02;stroke-miterlimit:10;} .st5{fill:#FBBA00;} .st6{fill:none;stroke:#1D1D1B;stroke-linecap:round;stroke-linejoin:round;stroke-miterlimit:10;} .st7{fill:none;} </style> <g> <path class="st2" d="M824.7,162.6c-29.9-16-72-33.6-79.2-71c-1.8-9.2-0.6-18.7,2.5-27.4c2.9-7.9,7.9-15.1,15-19.8 c17.1-11.5,50-10.2,61.1,9.6c0.8,1.5,6.8-6.5,7.4-7.4c12.7-17.9,41.5-30,62-18.2c21,12.1,19.6,40.3,15.1,60.9 c-2.5,11.3-6.1,23-11.8,33.4c-6.1,11.2-14.9,20.5-23.3,29.9c-6.7,7.6-15.4,15.2-25.9,15.9C839.2,169.1,831.8,166.3,824.7,162.6"></path> <path class="st3" d="M829.6,147.2c-13.5-8-26.6-18-34.2-31.6c-3.7-6.6-6-15.1-2.2-22.2c3-5.6,9.1-8.1,15.3-7.5 c5.5,0.6,10.9,2.7,15.4,5.9c2.4,1.7,4.2,3.7,6.2,5.8c1.7,1.8,3.6,2.7,5.1,0.1c2.2-3.9,3.9-7.1,7.7-9.7c3.6-2.5,7.9-4.1,12.2-4.7 c3.7-0.5,7.7-0.3,11,1.6c4.4,2.5,5.9,7.4,5.8,12.2c-0.2,10.2-4.2,21.4-8.1,30.7c-2.2,5.3-4.8,10.5-7.8,15.5 c-1.5,2.5-3.1,4.9-4.9,7.2c-1.2,1.6-3.2,5.3-5.3,5.5c-0.9,0.1-1.7-0.4-2.5-0.9C838.7,152.5,834.1,149.9,829.6,147.2"></path> <path class="st4" d="M829.6,147.2c-13.5-8-26.6-18-34.2-31.6c-3.7-6.6-6-15.1-2.2-22.2c3-5.6,9.1-8.1,15.3-7.5 c5.5,0.6,10.9,2.7,15.4,5.9c2.4,1.7,4.2,3.7,6.2,5.8c1.7,1.8,3.6,2.7,5.1,0.1c2.2-3.9,3.9-7.1,7.7-9.7c3.6-2.5,7.9-4.1,12.2-4.7 c3.7-0.5,7.7-0.3,11,1.6c4.4,2.5,5.9,7.4,5.8,12.2c-0.2,10.2-4.2,21.4-8.1,30.7c-2.2,5.3-4.8,10.5-7.8,15.5 c-1.5,2.5-3.1,4.9-4.9,7.2c-1.2,1.6-3.2,5.3-5.3,5.5c-0.9,0.1-1.7-0.4-2.5-0.9C838.7,152.5,834.1,149.9,829.6,147.2z"></path> <path class="st5" d="M837.2,150.8c-0.6,0.8-16.6-11.5-18.1-12.9c-5.5-5.2-13.5-14.3-12.2-22.5c2.1-12.8,21.3-7.8,28.3-2.8 c1.7,1.2,4-3,4.5-3.9c2-3.8,5.1-7.1,9-9c5.1-2.5,11.6-0.5,12.1,5.8c0.2,2.4-0.5,4.8-1.3,7C854.2,126.3,846,139,837.2,150.8"></path> <path class="st6" d="M274.1,182.9c50.9-29.2,127.6-14.4,181.7-3.6c56.7,11.4,112.9,25.4,170.2,33.3c53.5,7.4,117.2,14.2,168.7-5.9 c29.5-11.5,57.2-28.8,79.7-51.2c22.4-22.1,45.2-54.6,45.2-87.4c0-1.9-0.1-3.8-0.3-5.7c-2.1-21.3-19.5-39-40.7-41.6 c-11.2-1.3-22.6,1.4-32.2,7.3c-4.8,3-9.1,6.8-12.6,11.2c-2.9,3.7-5.4,11.7-10.4,13c-0.7,0.2-1.3,0.2-2,0.1c-4.6-0.9-8-7-11.7-9.7 c-11.3-8.6-27.1-10.9-40.6-6.9c-13.9,4-25.5,14.8-30.5,28.3c-7.6,20.5,2.3,43.6,16.4,58.8c13.4,14.5,31.2,24,48.6,32.9 c6.3,3.2,12.9,6.8,19.5,9.9c6.1,2.8,11.2,3.9,16.3-1.5c4.6-4.8,8.2-10.4,11.9-15.8c6.5-9.3,13.1-18.8,17.2-29.4 c4.2-10.8,8.4-31.5-5.9-37.1c-10.7-4.2-23.8,4.7-29.4,13.4c-1.1,1.7-2.1,3.7-4.2,2.6c-1.7-0.9-2.8-3.1-4.2-4.5 c-5.9-5.6-15-10.1-23.2-7.7c-12.5,3.6-16.2,17-11,28c7,14.9,22.2,26.3,36.8,33c2.3,1.1,4.7,2,7.2,2.9c0.5,0.2,1,0.3,1.4,0.2 c0.5-0.1,1-0.5,1.4-0.9c10-9.6,21.4-22,24.3-36.1c0.6-3,0.8-6.2-0.2-9.2c-1-2.9-3.2-5.6-6.1-6.5c-4.5-1.4-9.1,1.4-12.6,4.6 c-2.4,2.2-4.5,4.7-6.3,7.4c-1,1.6-3.1,2.1-4.8,1.3c-3.5-1.7-6.9-3.5-10.7-4.6c-9-2.5-19.3,2.9-16.3,13.4c2.2,7.6,8.7,14,14.3,19.2 c9.3,8.5,20.4,14.8,31.7,20.3c0.6,0.3,1.2,0.6,1.8,0.8c6.5,3,13.1,5.7,19.9,8.1c56.8,20,124,44.6,207.3,43.6"></path> <path id="SVGID_x5F_1_x5F_" class="st7" d="M272.1,170.9c50.9-29.2,127.6-14.4,181.7-3.6c56.7,11.4,112.9,25.4,170.2,33.3 c53.5,7.4,117.2,14.2,168.7-5.9c29.5-11.5,57.2-28.8,79.7-51.2c22.4-22.1,45.2-54.6,45.2-87.4c0-1.9-0.1-3.8-0.3-5.7 c-2.1-21.3-19.5-39-40.7-41.6c-11.2-1.3-22.6,1.4-32.2,7.3c-4.8,3-9.1,6.8-12.6,11.2c-2.9,3.7-5.4,11.7-10.4,13 c-0.7,0.2-1.3,0.2-2,0.1c-4.6-0.9-8-7-11.7-9.7c-11.3-8.6-27.1-10.9-40.6-6.9c-13.9,4-25.5,14.8-30.5,28.3 c-7.6,20.5,2.3,43.6,16.4,58.8c13.4,14.5,31.2,24,48.6,32.9c6.3,3.2,12.9,6.8,19.5,9.9c6.1,2.8,11.2,3.9,16.3-1.5 c4.6-4.8,8.2-10.4,11.9-15.8c6.5-9.3,13.1-18.8,17.2-29.4c4.2-10.8,8.4-31.5-5.9-37.1c-10.7-4.2-23.8,4.7-29.4,13.4 c-1.1,1.7-2.1,3.7-4.2,2.6c-1.7-0.9-2.8-3.1-4.2-4.5c-5.9-5.6-15-10.1-23.2-7.7c-12.5,3.6-16.2,17-11,28c7,14.9,22.2,26.3,36.8,33 c2.3,1.1,4.7,2,7.2,2.9c0.5,0.2,1,0.3,1.4,0.2c0.5-0.1,1-0.5,1.4-0.9c10-9.6,21.4-22,24.3-36.1c0.6-3,0.8-6.2-0.2-9.2 c-1-2.9-3.2-5.6-6.1-6.5c-4.5-1.4-9.1,1.4-12.6,4.6c-2.4,2.2-4.5,4.7-6.3,7.4c-1,1.6-3.1,2.1-4.8,1.3c-3.5-1.7-6.9-3.5-10.7-4.6 c-9-2.5-19.3,2.9-16.3,13.4c2.2,7.6,8.7,14,14.3,19.2c9.3,8.5,20.4,14.8,31.7,20.3c0.6,0.3,1.2,0.6,1.8,0.8 c6.5,3,13.1,5.7,19.9,8.1c56.8,20,124,44.6,207.3,43.6"></path> <text> <textPath xlink:href="#SVGID_x5F_1_x5F_"> <tspan style="font-family:'MyriadPro-Regular'; font-size:34.4739px;">Du cœur et beaucoup d’écoute</tspan> </textPath> </text> </g> </svg> 